<svg width="240" height="240" viewBox="0 0 240 240" fill="none" xmlns="http://www.w3.org/2000/svg">
<mask id="mask0_5635_171320" style="mask-type:luminance" maskUnits="userSpaceOnUse" x="0" y="0" width="240" height="240">
<path d="M0.249695 0.259949H239.751V239.761H0.249695V0.259949Z" fill="white"/>
</mask>
<g mask="url(#mask0_5635_171320)">
<path d="M45.1985 62.158C45.2866 60.7489 46.5091 59.6063 47.9291 59.6063H198.954C200.376 59.6063 201.456 60.7514 201.366 62.162L195.593 152.432L39.7461 149.387L45.1985 62.158Z" fill="#8FD0C0"/>
<path d="M46.987 63.1445C47.0457 62.2049 47.8608 61.4435 48.8074 61.4435H197.75C198.697 61.4435 199.417 62.2049 199.358 63.1445L193.967 149.385H41.5957L46.987 63.1445Z" fill="#23292F"/>
<path opacity="0.1" d="M59.8985 70.335C59.9449 69.5925 60.5891 68.9908 61.337 68.9908H184.316C185.064 68.9908 185.633 69.5925 185.586 70.335L181.213 140.286C181.167 141.028 180.523 141.63 179.775 141.63H56.796C56.048 141.63 55.4792 141.028 55.5256 140.286L59.8985 70.335Z" fill="#00FFC1"/>
<path d="M37.7583 151.933L194.844 149.439L195.524 152.458L169.669 183.856C169.266 184.345 168.479 184.742 167.911 184.742H4.70369C4.42147 184.742 4.23387 184.642 4.18487 184.466L3.25195 181.108L37.7583 151.933Z" fill="#056D52"/>
<path d="M194.55 152.459L168.801 183.856C168.399 184.346 167.614 184.743 167.045 184.743H3.99585" stroke="#056D52" stroke-width="0.417942"/>
<path d="M39.7573 149.394H194.899L169.158 180.791C168.757 181.281 167.971 181.678 167.403 181.678H4.73411C4.05946 181.678 4.01865 181.127 4.65161 180.565L39.7573 149.394Z" fill="#8FD0C0"/>
<path opacity="0.1" d="M162.277 154.567C162.49 154.325 162.892 154.129 163.176 154.129H188.254C188.538 154.129 188.596 154.325 188.384 154.567L178.89 165.391C178.678 165.633 178.276 165.829 177.992 165.829H152.914C152.63 165.829 152.572 165.633 152.784 165.391L162.277 154.567Z" fill="#23292F"/>
<path opacity="0.1" d="M32.0801 154.567C32.2924 154.325 32.6947 154.129 32.9787 154.129H58.0566C58.3405 154.129 58.3984 154.325 58.1863 154.567L48.6928 165.391C48.4805 165.633 48.0782 165.829 47.7942 165.829H22.7164C22.4324 165.829 22.3743 165.633 22.5866 165.391L32.0801 154.567Z" fill="#23292F"/>
<path opacity="0.3" d="M68.4943 171.938C68.6969 171.693 69.0915 171.496 69.3754 171.496H111.837C112.121 171.496 112.187 171.693 111.985 171.938L103.902 181.679H60.4121L68.4943 171.938Z" fill="#23292F"/>
<path opacity="0.6" d="M103.902 181.679L111.985 171.938C112.187 171.693 112.121 171.496 111.837 171.496H69.3754C69.0915 171.496 68.6969 171.693 68.4943 171.938L60.4121 181.679" stroke="#23292F" stroke-width="0.412234"/>
<path opacity="0.3" d="M164.019 154.125H59.7696C59.4856 154.125 59.0858 154.284 58.8767 154.48L47.1713 165.47C46.9622 165.666 47.0228 165.825 47.3068 165.825H151.557C151.841 165.825 152.24 165.666 152.449 165.47L164.155 154.48C164.364 154.284 164.303 154.125 164.019 154.125Z" fill="#23292F"/>
<path opacity="0.6" d="M164.259 154.184H59.3887C59.1521 154.184 58.8189 154.317 58.6446 154.481L46.9398 165.47C46.7655 165.633 46.8161 165.766 47.0528 165.766H151.923C152.16 165.766 152.493 165.633 152.667 165.47L164.372 154.481C164.546 154.317 164.496 154.184 164.259 154.184Z" stroke="#23292F" stroke-width="0.414328"/>
<path d="M61.8031 152.117C61.9857 151.922 62.2696 151.788 62.4986 151.788H166.723C167.066 151.788 167.135 152.078 166.861 152.37L166.357 152.907C166.174 153.102 165.891 153.236 165.661 153.236H61.4368C61.0945 153.236 61.0257 152.946 61.2991 152.654L61.8031 152.117Z" fill="#203E3E"/>
<g opacity="0.6">
<path d="M61.7298 152.227C61.8646 152.024 62.1515 151.864 62.3805 151.864H166.672C166.957 151.864 167.014 152.106 166.787 152.349L166.284 152.886C166.131 153.048 165.894 153.16 165.703 153.16H61.5592C61.3152 153.16 61.2309 152.98 61.3741 152.764L61.7298 152.227Z" stroke="#203E3E" stroke-width="0.412234"/>
</g>
<path opacity="0.6" d="M75.3985 163.543H70.6658C70.4292 163.543 70.0977 163.675 69.9255 163.837L69.0665 164.648C68.8943 164.81 68.9465 164.942 69.1832 164.942H73.9159C74.1526 164.942 74.484 164.81 74.6562 164.648L75.5153 163.837C75.6875 163.675 75.6352 163.543 75.3985 163.543Z" stroke="#23292F" stroke-width="0.412321"/>
<path opacity="0.6" d="M76.5137 163.84C76.6844 163.677 77.0147 163.543 77.2517 163.543H125.736C125.972 163.543 126.026 163.677 125.855 163.84L125.02 164.644C124.849 164.808 124.519 164.941 124.282 164.941H75.7977C75.5612 164.941 75.5078 164.808 75.6785 164.644L76.5137 163.84Z" stroke="#23292F" stroke-width="0.412234"/>
<path opacity="0.6" d="M68.7872 163.543H64.0545C63.8178 163.543 63.4864 163.675 63.3142 163.837L62.4551 164.648C62.2829 164.81 62.3352 164.942 62.5718 164.942H67.3046C67.5412 164.942 67.8727 164.81 68.0449 164.648L68.9039 163.837C69.0761 163.675 69.0239 163.543 68.7872 163.543Z" stroke="#23292F" stroke-width="0.412321"/>
<path opacity="0.6" d="M62.172 163.543H57.4393C57.2026 163.543 56.8711 163.675 56.6989 163.837L55.8399 164.648C55.6677 164.81 55.7199 164.942 55.9566 164.942H60.6893C60.926 164.942 61.2575 164.81 61.4297 164.648L62.2887 163.837C62.4609 163.675 62.4086 163.543 62.172 163.543Z" stroke="#23292F" stroke-width="0.412321"/>
<path opacity="0.6" d="M55.5528 163.543H50.8201C50.5835 163.543 50.252 163.675 50.0798 163.837L49.2208 164.648C49.0486 164.81 49.1008 164.942 49.3375 164.942H54.0702C54.3069 164.942 54.6383 164.81 54.8105 164.648L55.6695 163.837C55.8418 163.675 55.7895 163.543 55.5528 163.543Z" stroke="#23292F" stroke-width="0.412321"/>
<path opacity="0.6" d="M58.0023 161.4H53.2696C53.0329 161.4 52.7015 161.531 52.5293 161.694L51.6702 162.504C51.498 162.667 51.5503 162.799 51.7869 162.799H56.5197C56.7563 162.799 57.0878 162.667 57.26 162.504L58.119 161.694C58.2912 161.531 58.239 161.4 58.0023 161.4Z" stroke="#23292F" stroke-width="0.412321"/>
<path opacity="0.6" d="M64.6168 161.4H59.8841C59.6474 161.4 59.316 161.531 59.1438 161.694L58.2847 162.504C58.1125 162.667 58.1648 162.799 58.4014 162.799H63.1342C63.3708 162.799 63.7023 162.667 63.8745 162.504L64.7335 161.694C64.9057 161.531 64.8535 161.4 64.6168 161.4Z" stroke="#23292F" stroke-width="0.412321"/>
<path opacity="0.6" d="M71.232 161.4H66.4993C66.2627 161.4 65.9312 161.531 65.759 161.694L64.9 162.504C64.7278 162.667 64.78 162.799 65.0167 162.799H69.7494C69.9861 162.799 70.3175 162.667 70.4897 162.504L71.3487 161.694C71.521 161.531 71.4687 161.4 71.232 161.4Z" stroke="#23292F" stroke-width="0.412321"/>
<path opacity="0.6" d="M77.8436 161.4H73.1109C72.8742 161.4 72.5428 161.531 72.3706 161.694L71.5115 162.504C71.3393 162.667 71.3916 162.799 71.6282 162.799H76.361C76.5976 162.799 76.9291 162.667 77.1013 162.504L77.9603 161.694C78.1325 161.531 78.0803 161.4 77.8436 161.4Z" stroke="#23292F" stroke-width="0.412321"/>
<path opacity="0.6" d="M84.4625 161.4H79.7298C79.4931 161.4 79.1617 161.531 78.9895 161.694L78.1304 162.504C77.9582 162.667 78.0105 162.799 78.2471 162.799H82.9799C83.2165 162.799 83.548 162.667 83.7202 162.504L84.5792 161.694C84.7514 161.531 84.6992 161.4 84.4625 161.4Z" stroke="#23292F" stroke-width="0.412321"/>
<path opacity="0.6" d="M91.0738 161.4H86.3411C86.1045 161.4 85.773 161.531 85.6008 161.694L84.7418 162.504C84.5696 162.667 84.6218 162.799 84.8585 162.799H89.5912C89.8279 162.799 90.1593 162.667 90.3315 162.504L91.1905 161.694C91.3628 161.531 91.3105 161.4 91.0738 161.4Z" stroke="#23292F" stroke-width="0.412321"/>
<path opacity="0.6" d="M97.6891 161.4H92.9563C92.7197 161.4 92.3882 161.531 92.216 161.694L91.357 162.504C91.1848 162.667 91.237 162.799 91.4737 162.799H96.2064C96.4431 162.799 96.7745 162.667 96.9467 162.504L97.8058 161.694C97.978 161.531 97.9257 161.4 97.6891 161.4Z" stroke="#23292F" stroke-width="0.412321"/>
<path opacity="0.6" d="M104.308 161.4H99.5755C99.3388 161.4 99.0074 161.531 98.8352 161.694L97.9761 162.504C97.8039 162.667 97.8562 162.799 98.0928 162.799H102.826C103.062 162.799 103.394 162.667 103.566 162.504L104.425 161.694C104.597 161.531 104.545 161.4 104.308 161.4Z" stroke="#23292F" stroke-width="0.412321"/>
<path opacity="0.6" d="M110.919 161.4H106.186C105.95 161.4 105.618 161.531 105.446 161.694L104.587 162.504C104.415 162.667 104.467 162.799 104.704 162.799H109.436C109.673 162.799 110.005 162.667 110.177 162.504L111.036 161.694C111.208 161.531 111.156 161.4 110.919 161.4Z" stroke="#23292F" stroke-width="0.412321"/>
<path opacity="0.6" d="M117.535 161.4H112.802C112.565 161.4 112.234 161.531 112.062 161.694L111.203 162.504C111.03 162.667 111.083 162.799 111.319 162.799H116.052C116.289 162.799 116.62 162.667 116.792 162.504L117.651 161.694C117.824 161.531 117.771 161.4 117.535 161.4Z" stroke="#23292F" stroke-width="0.412321"/>
<path opacity="0.6" d="M124.146 161.4H119.413C119.176 161.4 118.845 161.531 118.673 161.694L117.814 162.504C117.641 162.667 117.694 162.799 117.93 162.799H122.663C122.9 162.799 123.231 162.667 123.403 162.504L124.262 161.694C124.435 161.531 124.382 161.4 124.146 161.4Z" stroke="#23292F" stroke-width="0.412321"/>
<path opacity="0.6" d="M130.765 161.4H126.032C125.795 161.4 125.464 161.531 125.291 161.694L124.432 162.504C124.26 162.667 124.312 162.799 124.549 162.799H129.282C129.519 162.799 129.85 162.667 130.022 162.504L130.881 161.694C131.053 161.531 131.001 161.4 130.765 161.4Z" stroke="#23292F" stroke-width="0.412321"/>
<path opacity="0.6" d="M137.38 161.4H132.647C132.41 161.4 132.079 161.531 131.907 161.694L131.048 162.504C130.875 162.667 130.928 162.799 131.164 162.799H135.897C136.134 162.799 136.465 162.667 136.637 162.504L137.496 161.694C137.669 161.531 137.616 161.4 137.38 161.4Z" stroke="#23292F" stroke-width="0.412321"/>
<path opacity="0.6" d="M147.772 161.4H143.04C142.803 161.4 142.471 161.531 142.299 161.694L141.44 162.504C141.268 162.667 141.32 162.799 141.557 162.799H146.29C146.526 162.799 146.858 162.667 147.03 162.504L147.889 161.694C148.061 161.531 148.009 161.4 147.772 161.4Z" stroke="#23292F" stroke-width="0.412321"/>
<path opacity="0.6" d="M69.9005 159.254H65.1678C64.9311 159.254 64.5997 159.386 64.4274 159.548L63.5684 160.359C63.3962 160.521 63.4485 160.653 63.6851 160.653H68.4178C68.6545 160.653 68.986 160.521 69.1582 160.359L70.0172 159.548C70.1894 159.386 70.1372 159.254 69.9005 159.254Z" stroke="#23292F" stroke-width="0.412321"/>
<path opacity="0.6" d="M76.5152 159.254H71.7825C71.5459 159.254 71.2144 159.386 71.0422 159.548L70.1832 160.359C70.011 160.521 70.0632 160.653 70.2999 160.653H75.0326C75.2693 160.653 75.6007 160.521 75.7729 160.359L76.6319 159.548C76.8042 159.386 76.7519 159.254 76.5152 159.254Z" stroke="#23292F" stroke-width="0.412321"/>
<path opacity="0.6" d="M83.1305 159.254H78.3978C78.1611 159.254 77.8296 159.386 77.6574 159.548L76.7984 160.359C76.6262 160.521 76.6784 160.653 76.9151 160.653H81.6478C81.8845 160.653 82.2159 160.521 82.3882 160.359L83.2472 159.548C83.4194 159.386 83.3671 159.254 83.1305 159.254Z" stroke="#23292F" stroke-width="0.412321"/>
<path opacity="0.6" d="M89.7457 159.254H85.013C84.7763 159.254 84.4449 159.386 84.2727 159.548L83.4136 160.359C83.2414 160.521 83.2937 160.653 83.5303 160.653H88.2631C88.4997 160.653 88.8312 160.521 89.0034 160.359L89.8624 159.548C90.0346 159.386 89.9824 159.254 89.7457 159.254Z" stroke="#23292F" stroke-width="0.412321"/>
<path opacity="0.6" d="M96.3575 159.254H91.6248C91.3881 159.254 91.0567 159.386 90.8845 159.548L90.0255 160.359C89.8532 160.521 89.9055 160.653 90.1422 160.653H94.8749C95.1115 160.653 95.443 160.521 95.6152 160.359L96.4742 159.548C96.6464 159.386 96.5942 159.254 96.3575 159.254Z" stroke="#23292F" stroke-width="0.412321"/>
<path opacity="0.6" d="M102.972 159.254H98.2393C98.0026 159.254 97.6712 159.386 97.499 159.548L96.64 160.359C96.4677 160.521 96.52 160.653 96.7567 160.653H101.489C101.726 160.653 102.057 160.521 102.23 160.359L103.089 159.548C103.261 159.386 103.209 159.254 102.972 159.254Z" stroke="#23292F" stroke-width="0.412321"/>
<path opacity="0.6" d="M109.591 159.254H104.859C104.622 159.254 104.291 159.386 104.118 159.548L103.259 160.359C103.087 160.521 103.139 160.653 103.376 160.653H108.109C108.345 160.653 108.677 160.521 108.849 160.359L109.708 159.548C109.88 159.386 109.828 159.254 109.591 159.254Z" stroke="#23292F" stroke-width="0.412321"/>
<path opacity="0.6" d="M116.202 159.254H111.47C111.233 159.254 110.902 159.386 110.729 159.548L109.87 160.359C109.698 160.521 109.75 160.653 109.987 160.653H114.72C114.957 160.653 115.288 160.521 115.46 160.359L116.319 159.548C116.491 159.386 116.439 159.254 116.202 159.254Z" stroke="#23292F" stroke-width="0.412321"/>
<path opacity="0.6" d="M122.813 159.254H118.081C117.844 159.254 117.512 159.386 117.34 159.548L116.481 160.359C116.309 160.521 116.361 160.653 116.598 160.653H121.331C121.567 160.653 121.899 160.521 122.071 160.359L122.93 159.548C123.102 159.386 123.05 159.254 122.813 159.254Z" stroke="#23292F" stroke-width="0.412321"/>
<path opacity="0.6" d="M129.433 159.254H124.7C124.464 159.254 124.132 159.386 123.96 159.548L123.101 160.359C122.929 160.521 122.981 160.653 123.218 160.653H127.95C128.187 160.653 128.518 160.521 128.691 160.359L129.55 159.548C129.722 159.386 129.67 159.254 129.433 159.254Z" stroke="#23292F" stroke-width="0.412321"/>
<path opacity="0.6" d="M136.048 159.254H131.315C131.078 159.254 130.747 159.386 130.575 159.548L129.716 160.359C129.543 160.521 129.596 160.653 129.832 160.653H134.565C134.802 160.653 135.133 160.521 135.305 160.359L136.164 159.548C136.337 159.386 136.284 159.254 136.048 159.254Z" stroke="#23292F" stroke-width="0.412321"/>
<path opacity="0.6" d="M142.659 159.254H137.927C137.69 159.254 137.358 159.386 137.186 159.548L136.327 160.359C136.155 160.521 136.207 160.653 136.444 160.653H141.177C141.413 160.653 141.745 160.521 141.917 160.359L142.776 159.548C142.948 159.386 142.896 159.254 142.659 159.254Z" stroke="#23292F" stroke-width="0.412321"/>
<path opacity="0.6" d="M156.553 159.254H144.215C143.978 159.254 143.648 159.387 143.476 159.55L142.631 160.357C142.46 160.52 142.513 160.652 142.75 160.652H155.087C155.324 160.652 155.655 160.52 155.826 160.357L156.671 159.55C156.842 159.387 156.789 159.254 156.553 159.254Z" stroke="#23292F" stroke-width="0.412312"/>
<path opacity="0.6" d="M70.4549 157.11H65.7222C65.4856 157.11 65.1541 157.241 64.9819 157.404L64.1229 158.214C63.9507 158.377 64.0029 158.509 64.2396 158.509H68.9723C69.209 158.509 69.5404 158.377 69.7126 158.214L70.5716 157.404C70.7439 157.241 70.6916 157.11 70.4549 157.11Z" stroke="#23292F" stroke-width="0.412321"/>
<path opacity="0.6" d="M77.0694 157.11H72.3367C72.1001 157.11 71.7686 157.241 71.5964 157.404L70.7374 158.214C70.5652 158.377 70.6174 158.509 70.8541 158.509H75.5868C75.8235 158.509 76.1549 158.377 76.3271 158.214L77.1861 157.404C77.3584 157.241 77.3061 157.11 77.0694 157.11Z" stroke="#23292F" stroke-width="0.412321"/>
<path opacity="0.6" d="M83.6854 157.11H78.9527C78.716 157.11 78.3846 157.241 78.2124 157.404L77.3533 158.214C77.1811 158.377 77.2334 158.509 77.47 158.509H82.2028C82.4394 158.509 82.7709 158.377 82.9431 158.214L83.8021 157.404C83.9743 157.241 83.9221 157.11 83.6854 157.11Z" stroke="#23292F" stroke-width="0.412321"/>
<path opacity="0.6" d="M90.3006 157.11H85.5679C85.3313 157.11 84.9998 157.241 84.8276 157.404L83.9686 158.214C83.7964 158.377 83.8486 158.509 84.0853 158.509H88.818C89.0547 158.509 89.3861 158.377 89.5583 158.214L90.4174 157.404C90.5896 157.241 90.5373 157.11 90.3006 157.11Z" stroke="#23292F" stroke-width="0.412321"/>
<path opacity="0.6" d="M96.9151 157.11H92.1824C91.9458 157.11 91.6143 157.241 91.4421 157.404L90.5831 158.214C90.4109 158.377 90.4631 158.509 90.6998 158.509H95.4325C95.6692 158.509 96.0006 158.377 96.1728 158.214L97.0319 157.404C97.2041 157.241 97.1518 157.11 96.9151 157.11Z" stroke="#23292F" stroke-width="0.412321"/>
<path opacity="0.6" d="M103.53 157.11H98.7977C98.561 157.11 98.2295 157.241 98.0573 157.404L97.1983 158.214C97.0261 158.377 97.0783 158.509 97.315 158.509H102.048C102.284 158.509 102.616 158.377 102.788 158.214L103.647 157.404C103.819 157.241 103.767 157.11 103.53 157.11Z" stroke="#23292F" stroke-width="0.412321"/>
<path opacity="0.6" d="M110.146 157.11H105.413C105.176 157.11 104.845 157.241 104.673 157.404L103.814 158.214C103.641 158.377 103.694 158.509 103.93 158.509H108.663C108.9 158.509 109.231 158.377 109.403 158.214L110.262 157.404C110.435 157.241 110.382 157.11 110.146 157.11Z" stroke="#23292F" stroke-width="0.412321"/>
<path opacity="0.6" d="M116.761 157.11H112.028C111.791 157.11 111.46 157.241 111.288 157.404L110.429 158.214C110.257 158.377 110.309 158.509 110.545 158.509H115.278C115.515 158.509 115.846 158.377 116.019 158.214L116.878 157.404C117.05 157.241 116.998 157.11 116.761 157.11Z" stroke="#23292F" stroke-width="0.412321"/>
<path opacity="0.6" d="M123.372 157.11H118.639C118.403 157.11 118.071 157.241 117.899 157.404L117.04 158.214C116.868 158.377 116.92 158.509 117.157 158.509H121.89C122.126 158.509 122.458 158.377 122.63 158.214L123.489 157.404C123.661 157.241 123.609 157.11 123.372 157.11Z" stroke="#23292F" stroke-width="0.412321"/>
<path opacity="0.6" d="M129.987 157.11H125.255C125.018 157.11 124.687 157.241 124.514 157.404L123.655 158.214C123.483 158.377 123.535 158.509 123.772 158.509H128.505C128.741 158.509 129.073 158.377 129.245 158.214L130.104 157.404C130.276 157.241 130.224 157.11 129.987 157.11Z" stroke="#23292F" stroke-width="0.412321"/>
<path opacity="0.6" d="M136.606 157.11H131.874C131.637 157.11 131.305 157.241 131.133 157.404L130.274 158.214C130.102 158.377 130.154 158.509 130.391 158.509H135.124C135.36 158.509 135.692 158.377 135.864 158.214L136.723 157.404C136.895 157.241 136.843 157.11 136.606 157.11Z" stroke="#23292F" stroke-width="0.412321"/>
<path opacity="0.6" d="M143.218 157.11H138.485C138.248 157.11 137.917 157.241 137.745 157.404L136.886 158.214C136.714 158.377 136.766 158.509 137.003 158.509H141.735C141.972 158.509 142.303 158.377 142.476 158.214L143.335 157.404C143.507 157.241 143.455 157.11 143.218 157.11Z" stroke="#23292F" stroke-width="0.412321"/>
<path opacity="0.6" d="M149.833 157.11H145.1C144.864 157.11 144.532 157.241 144.36 157.404L143.501 158.214C143.329 158.377 143.381 158.509 143.618 158.509H148.35C148.587 158.509 148.919 158.377 149.091 158.214L149.95 157.404C150.122 157.241 150.07 157.11 149.833 157.11Z" stroke="#23292F" stroke-width="0.412321"/>
<path opacity="0.6" d="M159.049 157.11H151.706C151.469 157.11 151.138 157.242 150.967 157.405L150.115 158.213C149.943 158.376 149.996 158.509 150.232 158.509H157.575C157.812 158.509 158.143 158.376 158.315 158.213L159.167 157.405C159.338 157.242 159.286 157.11 159.049 157.11Z" stroke="#23292F" stroke-width="0.412316"/>
<path opacity="0.6" d="M71.9608 154.964H67.2281C66.9914 154.964 66.66 155.096 66.4878 155.258L65.6287 156.069C65.4565 156.231 65.5088 156.363 65.7454 156.363H70.4781C70.7148 156.363 71.0463 156.231 71.2185 156.069L72.0775 155.258C72.2497 155.096 72.1975 154.964 71.9608 154.964Z" stroke="#23292F" stroke-width="0.412321"/>
<path opacity="0.6" d="M78.5719 154.964H73.8392C73.6025 154.964 73.271 155.096 73.0988 155.258L72.2398 156.069C72.0676 156.231 72.1199 156.363 72.3565 156.363H77.0892C77.3259 156.363 77.6574 156.231 77.8296 156.069L78.6886 155.258C78.8608 155.096 78.8085 154.964 78.5719 154.964Z" stroke="#23292F" stroke-width="0.412321"/>
<path opacity="0.6" d="M85.1905 154.964H80.4578C80.2212 154.964 79.8897 155.096 79.7175 155.258L78.8585 156.069C78.6863 156.231 78.7385 156.363 78.9752 156.363H83.7079C83.9446 156.363 84.276 156.231 84.4482 156.069L85.3072 155.258C85.4794 155.096 85.4272 154.964 85.1905 154.964Z" stroke="#23292F" stroke-width="0.412321"/>
<path opacity="0.6" d="M91.8024 154.964H87.0696C86.833 154.964 86.5015 155.096 86.3293 155.258L85.4703 156.069C85.2981 156.231 85.3503 156.363 85.587 156.363H90.3197C90.5564 156.363 90.8878 156.231 91.06 156.069L91.9191 155.258C92.0913 155.096 92.039 154.964 91.8024 154.964Z" stroke="#23292F" stroke-width="0.412321"/>
<path opacity="0.6" d="M98.4171 154.964H93.6844C93.4477 154.964 93.1163 155.096 92.9441 155.258L92.085 156.069C91.9128 156.231 91.9651 156.363 92.2017 156.363H96.9344C97.1711 156.363 97.5026 156.231 97.6748 156.069L98.5338 155.258C98.706 155.096 98.6538 154.964 98.4171 154.964Z" stroke="#23292F" stroke-width="0.412321"/>
<path opacity="0.6" d="M105.032 154.964H100.3C100.063 154.964 99.7315 155.096 99.5593 155.258L98.7003 156.069C98.528 156.231 98.5803 156.363 98.817 156.363H103.55C103.786 156.363 104.118 156.231 104.29 156.069L105.149 155.258C105.321 155.096 105.269 154.964 105.032 154.964Z" stroke="#23292F" stroke-width="0.412321"/>
<path opacity="0.6" d="M111.648 154.964H106.915C106.678 154.964 106.347 155.096 106.175 155.258L105.315 156.069C105.143 156.231 105.196 156.363 105.432 156.363H110.165C110.402 156.363 110.733 156.231 110.905 156.069L111.764 155.258C111.936 155.096 111.884 154.964 111.648 154.964Z" stroke="#23292F" stroke-width="0.412321"/>
<path opacity="0.6" d="M118.267 154.964H113.534C113.297 154.964 112.966 155.096 112.794 155.258L111.935 156.069C111.762 156.231 111.815 156.363 112.051 156.363H116.784C117.021 156.363 117.352 156.231 117.524 156.069L118.383 155.258C118.556 155.096 118.503 154.964 118.267 154.964Z" stroke="#23292F" stroke-width="0.412321"/>
<path opacity="0.6" d="M124.878 154.964H120.145C119.909 154.964 119.577 155.096 119.405 155.258L118.546 156.069C118.374 156.231 118.426 156.363 118.663 156.363H123.395C123.632 156.363 123.964 156.231 124.136 156.069L124.995 155.258C125.167 155.096 125.115 154.964 124.878 154.964Z" stroke="#23292F" stroke-width="0.412321"/>
<path opacity="0.6" d="M131.497 154.964H126.764C126.528 154.964 126.196 155.096 126.024 155.258L125.165 156.069C124.993 156.231 125.045 156.363 125.282 156.363H130.015C130.251 156.363 130.583 156.231 130.755 156.069L131.614 155.258C131.786 155.096 131.734 154.964 131.497 154.964Z" stroke="#23292F" stroke-width="0.412321"/>
<path opacity="0.6" d="M138.109 154.964H133.376C133.139 154.964 132.808 155.096 132.635 155.258L131.776 156.069C131.604 156.231 131.656 156.363 131.893 156.363H136.626C136.863 156.363 137.194 156.231 137.366 156.069L138.225 155.258C138.397 155.096 138.345 154.964 138.109 154.964Z" stroke="#23292F" stroke-width="0.412321"/>
<path opacity="0.6" d="M144.724 154.964H139.991C139.754 154.964 139.423 155.096 139.251 155.258L138.392 156.069C138.219 156.231 138.272 156.363 138.508 156.363H143.241C143.478 156.363 143.809 156.231 143.981 156.069L144.84 155.258C145.013 155.096 144.96 154.964 144.724 154.964Z" stroke="#23292F" stroke-width="0.412321"/>
<path opacity="0.6" d="M151.335 154.964H146.602C146.365 154.964 146.034 155.096 145.862 155.258L145.003 156.069C144.831 156.231 144.883 156.363 145.119 156.363H149.852C150.089 156.363 150.42 156.231 150.592 156.069L151.452 155.258C151.624 155.096 151.571 154.964 151.335 154.964Z" stroke="#23292F" stroke-width="0.412321"/>
<path opacity="0.6" d="M162.071 154.964H153.209C152.972 154.964 152.641 155.096 152.47 155.259L151.621 156.067C151.449 156.23 151.502 156.362 151.739 156.362H160.601C160.837 156.362 161.168 156.23 161.34 156.067L162.189 155.259C162.361 155.096 162.308 154.964 162.071 154.964Z" stroke="#23292F" stroke-width="0.412314"/>
<path opacity="0.6" d="M63.3453 159.254H55.7042C55.4675 159.254 55.1364 159.387 54.9648 159.55L54.1135 160.358C53.9418 160.521 53.9945 160.653 54.2312 160.653H61.8723C62.109 160.653 62.44 160.521 62.6117 160.358L63.463 159.55C63.6346 159.387 63.582 159.254 63.3453 159.254Z" stroke="#23292F" stroke-width="0.412316"/>
<path opacity="0.6" d="M63.8949 157.11H58.1634C57.9267 157.11 57.5954 157.242 57.4234 157.404L56.5677 158.214C56.3957 158.377 56.4482 158.509 56.6848 158.509H62.4164C62.653 158.509 62.9843 158.377 63.1563 158.214L64.012 157.404C64.184 157.242 64.1316 157.11 63.8949 157.11Z" stroke="#23292F" stroke-width="0.412319"/>
<path opacity="0.6" d="M65.3456 154.964H60.6128C60.3762 154.964 60.0447 155.096 59.8725 155.258L59.0135 156.069C58.8413 156.231 58.8935 156.363 59.1302 156.363H63.8629C64.0996 156.363 64.431 156.231 64.6032 156.069L65.4623 155.258C65.6345 155.096 65.5822 154.964 65.3456 154.964Z" stroke="#23292F" stroke-width="0.412321"/>
<path opacity="0.6" d="M152.256 163.543H147.523C147.287 163.543 146.955 163.675 146.783 163.837L145.924 164.648C145.752 164.81 145.804 164.942 146.041 164.942H150.773C151.01 164.942 151.341 164.81 151.514 164.648L152.373 163.837C152.545 163.675 152.493 163.543 152.256 163.543Z" stroke="#23292F" stroke-width="0.412321"/>
<path opacity="0.6" d="M145.641 163.543H140.908C140.671 163.543 140.34 163.675 140.168 163.837L139.309 164.648C139.136 164.81 139.189 164.942 139.425 164.942H144.158C144.395 164.942 144.726 164.81 144.898 164.648L145.757 163.837C145.93 163.675 145.877 163.543 145.641 163.543Z" stroke="#23292F" stroke-width="0.412321"/>
<path opacity="0.6" d="M139.025 163.543H134.293C134.056 163.543 133.725 163.675 133.552 163.837L132.693 164.648C132.521 164.81 132.573 164.942 132.81 164.942H137.543C137.78 164.942 138.111 164.81 138.283 164.648L139.142 163.837C139.314 163.675 139.262 163.543 139.025 163.543Z" stroke="#23292F" stroke-width="0.412321"/>
<path opacity="0.6" d="M132.41 163.543H127.677C127.44 163.543 127.109 163.675 126.937 163.837L126.078 164.648C125.905 164.81 125.958 164.942 126.194 164.942H130.927C131.164 164.942 131.495 164.81 131.667 164.648L132.526 163.837C132.699 163.675 132.646 163.543 132.41 163.543Z" stroke="#23292F" stroke-width="0.412321"/>
<mask id="mask1_5635_171320" style="mask-type:alpha" maskUnits="userSpaceOnUse" x="61" y="55" width="118" height="87">
<path d="M66.5248 55.4676H173.675C176.323 55.4676 178.47 57.6147 178.47 60.2632V136.391C178.47 139.039 176.323 141.186 173.675 141.186H66.5248C63.8763 141.186 61.7292 139.039 61.7292 136.391V60.2632C61.7292 57.6147 63.8763 55.4676 66.5248 55.4676Z" fill="#04634B" stroke="url(#paint0_linear_5635_171320)" stroke-width="0.85151"/>
</mask>
<g mask="url(#mask1_5635_171320)">
<path d="M182.194 168.211L193.318 157.456C192.564 154.787 190.114 148.064 185.802 142.354C181.404 136.532 175.12 131.822 166.756 133.423C157.848 135.128 152.689 134.596 148.105 130.793C145.828 128.904 143.707 126.221 141.333 122.644C139.359 119.67 137.202 116.065 134.631 111.768C134.11 110.898 133.572 110 133.016 109.073C129.721 103.583 126.819 101.853 124.214 102.051C122.899 102.152 121.617 102.743 120.352 103.663C119.087 104.582 117.854 105.817 116.637 107.179C115.809 108.105 114.997 109.081 114.187 110.053C113.805 110.512 113.423 110.97 113.042 111.421C111.858 112.821 110.677 114.148 109.489 115.193C108.303 116.235 107.089 117.015 105.836 117.292C104.567 117.573 103.286 117.332 101.994 116.385C99.4944 114.553 96.8085 111.434 93.9006 107.869C93.3168 107.154 92.724 106.42 92.1213 105.674C89.7113 102.691 87.1437 99.5127 84.3864 96.5419C77.4818 89.1029 69.475 83.0625 59.9473 84.6367C52.3102 85.8986 46.2117 91.3971 41.6824 97.8097C37.167 104.203 34.2404 111.463 32.9263 116.207V168.211H182.194Z" stroke="#00FFA8" stroke-width="1.27727"/>
</g>
<path d="M40.4576 36.1138C39.8435 34.21 37.8017 33.1627 35.8973 33.7747C33.9929 34.3861 32.9469 36.4256 33.5611 38.3294L34.428 41.0164L41.3245 38.8008L40.4576 36.1138Z" stroke="#00FFC1" stroke-width="2.42078"/>
<path d="M52.1345 82.5517C49.184 83.4996 46.0221 81.8812 45.0722 78.9369C44.1223 75.9925 45.7441 72.8372 48.6945 71.8893C51.645 70.9414 54.8069 72.5598 55.7568 75.5041C56.7067 78.4484 55.085 81.6037 52.1345 82.5517Z" fill="url(#paint1_linear_5635_171320)"/>
<path fill-rule="evenodd" clip-rule="evenodd" d="M62.761 51.1769C59.4033 40.7707 48.2282 35.0506 37.8001 38.401C27.3719 41.7513 21.6399 52.9034 24.9973 63.3096L26.287 67.3074C28.9093 75.435 25.8721 78.833 24.0181 79.4921L29.6359 77.6873L30.5349 80.474L68.2988 68.3412L67.3995 65.5546L73.0174 63.7498C71.1319 64.2921 66.6774 63.2375 64.0522 55.1789L62.761 51.1769Z" fill="#00FFC1"/>
<path d="M73.0181 63.7474L24.0193 79.4897L25.2153 83.197C25.5524 84.2419 26.6729 84.8166 27.718 84.4809L72.9325 69.9541C73.9774 69.6184 74.5515 68.4996 74.2146 67.4548L73.0181 63.7474Z" fill="#00FFC1"/>
<path d="M24.0001 79.4348L72.9993 63.6923L73.2055 64.3315L24.2064 80.074L24.0001 79.4348Z" fill="#001A2C"/>
<path d="M235.855 184.207H127.405C125.216 184.207 122.961 185.916 122.37 188.025L116.27 209.782C115.679 211.891 116.975 213.6 119.165 213.6H227.614C229.804 213.6 232.059 211.891 232.65 209.782L238.75 188.025C239.341 185.916 238.045 184.207 235.855 184.207Z" fill="#ABFFE7"/>
<path d="M231.456 187.301H213.765C212.08 187.301 210.346 188.616 209.891 190.238L205.032 207.569C204.578 209.191 205.575 210.506 207.259 210.506H224.95C226.635 210.506 228.369 209.191 228.823 207.569L233.682 190.238C234.137 188.616 233.14 187.301 231.456 187.301Z" fill="#00FFC1"/>
<path d="M218.61 201.184C220.249 201.184 221.926 199.904 222.354 198.325C222.783 196.746 221.802 195.466 220.163 195.466C218.523 195.466 216.847 196.746 216.418 198.325C215.989 199.904 216.971 201.184 218.61 201.184Z" fill="#00FFA8"/>
<path opacity="0.8" d="M223.131 198.6C222.544 200.92 220.251 202.8 218.007 202.8C215.763 202.8 214.42 200.92 215.007 198.6C215.593 196.281 217.888 194.4 220.131 194.4C222.375 194.4 223.718 196.281 223.131 198.6Z" stroke="#00FFA8" stroke-width="0.552965"/>
<path opacity="0.5" d="M174.262 191.022C172.911 191.026 171.523 192.083 171.162 193.385C170.801 194.686 171.603 195.738 172.953 195.735L201.511 195.664C202.862 195.661 204.25 194.603 204.611 193.302C204.972 192 204.17 190.948 202.82 190.951L174.262 191.022Z" fill="#04634B"/>
<path opacity="0.2" d="M132.688 191.107C131.34 191.104 129.949 192.154 129.583 193.452C129.216 194.749 130.012 195.804 131.361 195.806L145.678 195.835C147.027 195.837 148.417 194.788 148.784 193.49C149.151 192.192 148.355 191.138 147.006 191.135L132.688 191.107Z" fill="#04634B"/>
<path opacity="0.2" d="M184.254 199.197C182.883 199.196 181.471 200.267 181.101 201.587C180.731 202.907 181.542 203.977 182.913 203.978L198.786 203.978C200.157 203.978 201.569 202.908 201.939 201.588C202.309 200.268 201.497 199.197 200.126 199.197L184.254 199.197Z" fill="#04634B"/>
<path d="M201.874 153.6H134.065C131.875 153.6 129.621 155.309 129.03 157.418L125.808 168.911C125.216 171.02 126.512 172.729 128.702 172.729H196.512C198.701 172.729 200.956 171.02 201.547 168.911L204.769 157.418C205.36 155.309 204.064 153.6 201.874 153.6Z" fill="#ABFFE7"/>
<path d="M199.332 155.612H189.948C188.264 155.612 186.53 156.927 186.075 158.549L183.488 167.777C183.033 169.399 184.03 170.714 185.715 170.714H195.098C196.782 170.714 198.516 169.399 198.971 167.777L201.558 158.549C202.013 156.927 201.016 155.612 199.332 155.612Z" fill="#00FFC1"/>
<path opacity="0.5" d="M163.179 158.034C162.3 158.036 161.396 158.725 161.161 159.572C160.926 160.419 161.448 161.103 162.327 161.101L180.912 161.055C181.791 161.053 182.694 160.364 182.93 159.517C183.165 158.671 182.643 157.986 181.764 157.988L163.179 158.034Z" fill="#04634B"/>
<path opacity="0.2" d="M134.099 159.618L134.099 159.618C133.861 160.463 134.379 161.149 135.256 161.15L144.575 161.169C145.452 161.171 146.357 160.488 146.596 159.643C146.834 158.798 146.316 158.112 145.439 158.111L136.121 158.092C135.243 158.09 134.338 158.774 134.099 159.618Z" fill="#04634B"/>
<path opacity="0.2" d="M167.628 164.91L167.628 164.91C167.387 165.769 167.915 166.465 168.807 166.465L179.137 166.466C180.029 166.466 180.948 165.769 181.189 164.91C181.43 164.051 180.902 163.354 180.01 163.354L169.68 163.354C168.787 163.354 167.869 164.05 167.628 164.91Z" fill="#04634B"/>
</g>
<defs>
<linearGradient id="paint0_linear_5635_171320" x1="120.454" y1="181.003" x2="120.454" y2="106.897" gradientUnits="userSpaceOnUse">
<stop stop-color="#4B59D7"/>
<stop offset="1" stop-color="#4B59D7" stop-opacity="0"/>
</linearGradient>
<linearGradient id="paint1_linear_5635_171320" x1="49.8216" y1="80.892" x2="48.5918" y2="77.6479" gradientUnits="userSpaceOnUse">
<stop stop-color="#0CA37C"/>
<stop offset="1" stop-color="#04634B"/>
</linearGradient>
</defs>
</svg>
